<svg width="34" height="34" viewBox="0 0 34 34" fill="none" xmlns="http://www.w3.org/2000/svg">
  <path d="M13.001 23.748a4.25 4.25 0 0 0-5.937-5.937zm-1.011.992-5.917-5.917a4.25 4.25 0 0 0 5.916 5.916m16.164-1.423a4.25 4.25 0 0 0-5.78-5.78zm-.893 1.111-6-6a4.25 4.25 0 0 0 6 6" fill="#fff"/>
  <path fill-rule="evenodd" clip-rule="evenodd" d="M9.563 18.063a3.188 3.188 0 1 0 0 6.375 3.188 3.188 0 0 0 0-6.375M4.25 21.25a5.312 5.312 0 1 1 10.625 0 5.312 5.312 0 0 1-10.625 0m20.188-3.187a3.188 3.188 0 1 0 0 6.375 3.188 3.188 0 0 0 0-6.375m-5.313 3.187a5.312 5.312 0 1 1 10.625 0 5.312 5.312 0 0 1-10.625 0" fill="#fff"/>
  <path fill-rule="evenodd" clip-rule="evenodd" d="M12.75 21.25c0-.587.476-1.062 1.063-1.062h6.374a1.063 1.063 0 0 1 0 2.125h-6.375a1.063 1.063 0 0 1-1.062-1.063M9.47 9.41c.952-1.103 2.185-1.973 3.775-1.973a1.062 1.062 0 0 1 0 2.125c-.73 0-1.427.38-2.165 1.236-.746.865-1.42 2.09-2.094 3.5a99 99 0 0 0-.826 1.79c-.386.855-.78 1.722-1.16 2.48-.394.79-.826 1.57-1.313 2.252a1.063 1.063 0 0 1-.972 1.493h-.82a1.062 1.062 0 0 1-.694-1.866c.625-.542 1.24-1.514 1.9-2.83.378-.756.726-1.525 1.086-2.323.279-.617.566-1.253.882-1.913.684-1.433 1.459-2.877 2.402-3.971m10.222-.91c0-.587.476-1.062 1.063-1.062 1.59 0 2.823.869 3.774 1.972.943 1.094 1.718 2.538 2.402 3.97.316.661.603 1.297.882 1.914.36.798.708 1.567 1.086 2.322.66 1.317 1.275 2.29 1.9 2.83a1.062 1.062 0 0 1-.695 1.866h-.819a1.063 1.063 0 0 1-.971-1.492c-.488-.681-.92-1.463-1.315-2.252-.38-.758-.772-1.625-1.16-2.48-.28-.62-.558-1.232-.825-1.79-.674-1.41-1.348-2.635-2.094-3.5-.738-.856-1.435-1.235-2.165-1.235A1.063 1.063 0 0 1 19.692 8.5" fill="#fff"/>
</svg>
