<svg width="34" height="34" viewBox="0 0 34 34" fill="none" xmlns="http://www.w3.org/2000/svg"><path d="M12.75 21.604h13.458c.783 0 1.417-.634 1.417-1.416V5.312c0-.782-.634-1.416-1.417-1.416H12.75zM11.333 3.896h-.708a4.25 4.25 0 0 0-4.25 4.25v17.708a4.25 4.25 0 0 1 4.25-4.25h.708z" fill="#fff"/><path fill-rule="evenodd" clip-rule="evenodd" d="M5.313 8.146a5.31 5.31 0 0 1 5.312-5.313h15.583a2.48 2.48 0 0 1 2.48 2.48v14.875a2.48 2.48 0 0 1-2.48 2.479H10.625a3.188 3.188 0 0 0 0 6.375h17a1.063 1.063 0 0 1 0 2.125h-17a5.313 5.313 0 0 1-5.312-5.313zm2.125 13.458a5.3 5.3 0 0 1 3.187-1.062h15.583a.354.354 0 0 0 .355-.355V5.313a.354.354 0 0 0-.355-.354H10.625a3.187 3.187 0 0 0-3.187 3.188z" fill="#fff"/><path fill-rule="evenodd" clip-rule="evenodd" d="M25.854 20.542c.587 0 1.063.475 1.063 1.062v8.5a1.063 1.063 0 0 1-2.125 0v-8.5c0-.587.475-1.062 1.062-1.062" fill="#fff"/></svg>