<svg width="19" height="19" viewBox="0 0 19 19" fill="none" xmlns="http://www.w3.org/2000/svg">
  <path d="M.929 9.5h6.428M.929 16.241h12.857M11.643 9.5h6.428m0-6.741H5.214m-4.285 0C.929 4.13 1.7 4.9 3.07 4.9c1.372 0 2.143-.771 2.143-2.142 0-1.372-.771-2.143-2.143-2.143S.93 1.387.93 2.759m12.856 13.482c0 1.372.771 2.143 2.143 2.143s2.142-.771 2.142-2.143S17.3 14.1 15.93 14.1c-1.372 0-2.143.771-2.143 2.142M7.39 9.5c0 1.371.771 2.143 2.143 2.143s2.143-.772 2.143-2.143-.772-2.143-2.143-2.143C8.16 7.357 7.39 8.13 7.39 9.5" stroke="#5F5F5F" stroke-linecap="round" stroke-linejoin="round"/>
</svg>
