<svg width="34" height="34" viewBox="0 0 34 34" fill="none" xmlns="http://www.w3.org/2000/svg"><path fill-rule="evenodd" clip-rule="evenodd" d="M9.563 3.896a5.667 5.667 0 0 0-5.667 5.667v14.875a5.667 5.667 0 0 0 5.667 5.666h14.875a5.667 5.667 0 0 0 5.666-5.666V9.563a5.667 5.667 0 0 0-5.666-5.667zm1.062 8.854a2.125 2.125 0 1 0 0-4.25 2.125 2.125 0 0 0 0 4.25m2.125 10.625a2.125 2.125 0 1 1-4.25 0 2.125 2.125 0 0 1 4.25 0M23.375 12.75a2.125 2.125 0 1 0 0-4.25 2.125 2.125 0 0 0 0 4.25M25.5 23.375a2.125 2.125 0 1 1-4.25 0 2.125 2.125 0 0 1 4.25 0m-8.5-4.25a2.125 2.125 0 1 0 0-4.25 2.125 2.125 0 0 0 0 4.25" fill="#fff"/></svg>