<?xml version="1.0" encoding="UTF-8" standalone="no" ?>
<!DOCTYPE svg PUBLIC "-//W3C//DTD SVG 1.1//EN" "http://www.w3.org/Graphics/SVG/1.1/DTD/svg11.dtd">
<svg xmlns="http://www.w3.org/2000/svg" xmlns:xlink="http://www.w3.org/1999/xlink" version="1.1" width="1080" height="1080" viewBox="0 0 1080 1080" xml:space="preserve">
<desc>Created with Fabric.js 5.2.4</desc>
<defs>
</defs>
<g transform="matrix(1 0 0 1 540 540)" id="741bfe90-1560-478e-9043-50225be814cc"  >
<rect style="stroke: none; stroke-width: 1; stroke-dasharray: none; stroke-linecap: butt; stroke-dashoffset: 0; stroke-linejoin: miter; stroke-miterlimit: 4; fill: rgb(255,255,255); fill-rule: nonzero; opacity: 1; visibility: hidden;" vector-effect="non-scaling-stroke"  x="-540" y="-540" rx="0" ry="0" width="1080" height="1080" />
</g>
<g transform="matrix(1 0 0 1 540 540)" id="60b174b2-9c54-4960-accd-8f07768dbdaa"  >
</g>
<g transform="matrix(4.6 0 0 4.6 540 540)"  >
<g style=""   >
		<g transform="matrix(-1.7 0 0 1.7 -315.95 -87.22)"  >
<path style="stroke: none; stroke-width: 1; stroke-dasharray: none; stroke-linecap: butt; stroke-dashoffset: 0; stroke-linejoin: miter; stroke-miterlimit: 4; fill: rgb(0,0,0); fill-rule: nonzero; opacity: 1;" vector-effect="non-scaling-stroke"  transform=" translate(-68.12, -66.26)" d="M 66.641 68.535 L 73.26100000000001 68.535 C 75.33206781186549 68.535 77.01100000000001 66.85606781186547 77.01100000000001 64.785 C 77.01100000000001 62.71393218813452 75.33206781186549 61.035 73.26100000000001 61.035 L 62.98000000000001 61.035 C 60.908932188134536 61.035 59.23000000000001 62.71393218813452 59.23000000000001 64.785 L 59.23000000000001 67.723 C 59.22724567018264 69.63788482372624 60.66765168065335 71.2472509262146 62.57112216873405 71.45603688234111 C 64.47459265681475 71.6648228384676 66.22960687057791 70.40595277514575 66.64200000000001 68.536" stroke-linecap="round" />
</g>
		<g transform="matrix(-1.7 0 0 1.7 -330.46 -52.25)"  >
<path style="stroke: none; stroke-width: 1; stroke-dasharray: none; stroke-linecap: butt; stroke-dashoffset: 0; stroke-linejoin: miter; stroke-miterlimit: 4; fill: rgb(0,0,0); fill-rule: nonzero; opacity: 1;" vector-effect="non-scaling-stroke"  transform=" translate(-76.65, -86.8)" d="M 84.148 83.052 C 82.07693218813452 83.052 80.398 84.73093218813453 80.398 86.802 C 80.398 88.87 78.716 90.552 76.648 90.552 C 74.58 90.552 72.898 88.87 72.898 86.802 C 72.898 84.73400000000001 74.58 83.052 76.648 83.052 C 78.71906781186547 83.052 80.398 81.37306781186548 80.398 79.302 C 80.398 77.23093218813453 78.71906781186547 75.552 76.648 75.552 C 70.444 75.552 65.398 80.59800000000001 65.398 86.802 C 65.398 93.006 70.444 98.052 76.648 98.052 C 82.85199999999999 98.052 87.898 93.006 87.898 86.802 C 87.898 84.73093218813453 86.21906781186547 83.052 84.148 83.052" stroke-linecap="round" />
</g>
		<g transform="matrix(-1.7 0 0 1.7 -400 0)"  >
<path style="stroke: none; stroke-width: 1; stroke-dasharray: none; stroke-linecap: butt; stroke-dashoffset: 0; stroke-linejoin: miter; stroke-miterlimit: 4; fill: rgb(0,0,0); fill-rule: nonzero; opacity: 1;" vector-effect="non-scaling-stroke"  transform=" translate(-117.5, -117.5)" d="M 199.614 120.445 L 189.607 120.445 C 183.984 115.365 176.538 112.26599999999999 168.382 112.26599999999999 L 113.397 112.26599999999999 L 99.834 3.287 C 99.60041181244245 1.4095625375484984 98.00491301139448 0.0001552386920988802 96.113 0 C 91.118 0 86.628 1.97 83.469 5.546 C 80.30999999999999 9.122 78.91 13.821000000000002 79.52699999999999 18.778 L 81.59799999999998 35.42 L 74.92199999999998 35.42 C 74.73599999999998 35.42 74.54999999999998 35.429 74.36299999999999 35.433 L 72.17499999999998 17.852 C 71.91899999999998 15.797 70.04799999999999 14.335 67.99099999999999 14.594000000000001 C 65.93603857618774 14.849866536137114 64.47746810630687 16.72299693699089 64.73299999999999 18.778000000000002 L 66.92299999999999 36.374 C 61.6379084427658 37.64059199861585 56.730498294208026 40.14777262354959 52.60699999999997 43.68800000000002 C 47.316454737616354 48.23516940528672 43.537257734109936 54.28662866473193 41.77299999999998 61.03600000000003 L 28.243 61.036 C 20.779999999999998 61.036 14.707999999999998 67.108 14.707999999999998 74.571 L 14.707999999999998 83.499 C 14.707999999999998 90.96199999999999 20.779999999999998 97.03399999999999 28.243 97.03399999999999 L 40.666 97.03399999999999 L 40.666 216.572 C 40.666 226.733 48.93299999999999 234.999 59.092999999999996 234.999 L 64.902 234.999 C 75.063 234.999 83.32900000000001 226.732 83.32900000000001 216.572 L 83.32900000000001 185.901 L 157.414 185.901 L 157.414 216.572 C 157.414 226.733 165.68099999999998 234.999 175.84099999999998 234.999 L 181.65 234.999 C 191.811 234.999 200.077 226.732 200.077 216.572 L 200.077 143.961 C 200.0812180971557 138.32879113372337 198.57526921361853 132.79846062011455 195.716 127.94600000000003 L 199.614 127.94600000000001 C 206.88 127.94600000000001 212.792 133.858 212.792 141.12400000000002 L 212.792 194.00000000000003 C 212.792 196.0710678118655 214.47093218813453 197.75000000000003 216.542 197.75000000000003 C 218.61306781186548 197.75000000000003 220.292 196.0710678118655 220.292 194.00000000000003 L 220.292 141.123 C 220.292 129.721 211.016 120.446 199.615 120.446 M 86.969 17.852 C 86.622 15.06 87.375 12.453 89.089 10.511 C 90.105 9.36 91.396 8.514999999999999 92.864 8.018999999999998 L 96.274 35.42 L 89.154 35.42 z M 28.243 89.534 C 24.915 89.534 22.208 86.82600000000001 22.208 83.49900000000001 L 22.208 74.57100000000001 C 22.208 71.24300000000001 24.915999999999997 68.53600000000002 28.243 68.53600000000002 L 40.666 68.53600000000002 L 40.666 89.53400000000002 z M 75.83 216.572 C 75.83 222.598 70.928 227.5 64.902 227.5 L 59.093 227.5 C 53.06700000000001 227.5 48.165000000000006 222.598 48.165000000000006 216.572 L 48.165000000000006 185.901 L 75.828 185.901 z M 192.578 216.572 C 192.578 222.598 187.67600000000002 227.5 181.65 227.5 L 175.841 227.5 C 169.815 227.5 164.913 222.598 164.913 216.572 L 164.913 185.901 L 181.32600000000002 185.901 C 183.3970678118655 185.901 185.07600000000002 184.2220678118655 185.07600000000002 182.151 C 185.07600000000002 180.07993218813453 183.3970678118655 178.401 181.32600000000002 178.401 L 48.166 178.401 L 48.166 163.85600000000002 L 181.327 163.85600000000002 C 183.39806781186547 163.85600000000002 185.077 162.1770678118655 185.077 160.10600000000002 C 185.077 158.03493218813455 183.39806781186547 156.35600000000002 181.327 156.35600000000002 L 48.166 156.35600000000002 L 48.166 141.81100000000004 L 149.899 141.81100000000004 C 151.97006781186548 141.81100000000004 153.649 140.1320678118655 153.649 138.06100000000004 C 153.649 135.98993218813456 151.97006781186548 134.31100000000004 149.899 134.31100000000004 L 48.166 134.31100000000004 L 48.166 119.76600000000003 L 95.03 119.76600000000003 C 97.10106781186548 119.76600000000003 98.78 118.08706781186551 98.78 116.01600000000003 C 98.78 113.94493218813456 97.10106781186548 112.26600000000003 95.03 112.26600000000003 L 48.166 112.26600000000003 L 48.166 66.455 C 48.330999999999996 66.123 48.452 65.764 48.513 65.382 C 50.611 52.367000000000004 61.717 42.92 74.922 42.92 L 97.209 42.92 L 106.364 116.48 C 106.59758818755756 118.35743746245151 108.19308698860553 119.76684476130791 110.08500000000001 119.76700000000001 L 168.383 119.76700000000001 C 181.72400000000002 119.76700000000001 192.578 130.621 192.578 143.96200000000002 z" stroke-linecap="round" />
</g>
		<g transform="matrix(-1.7 0 0 1.7 -493.45 35)"  >
<path style="stroke: none; stroke-width: 1; stroke-dasharray: none; stroke-linecap: butt; stroke-dashoffset: 0; stroke-linejoin: miter; stroke-miterlimit: 4; fill: rgb(0,0,0); fill-rule: nonzero; opacity: 1;" vector-effect="non-scaling-stroke"  transform=" translate(-172.4, -138.06)" d="M 179.899 134.311 L 164.899 134.311 C 162.82793218813453 134.311 161.149 135.98993218813453 161.149 138.061 C 161.149 140.13206781186548 162.82793218813453 141.811 164.899 141.811 L 179.899 141.811 C 181.97006781186548 141.811 183.649 140.13206781186548 183.649 138.061 C 183.649 135.98993218813453 181.97006781186548 134.311 179.899 134.311" stroke-linecap="round" />
</g>
</g>
</g>
<g transform="matrix(1 0 0 1 540 524.43)"  >
<g style="" vector-effect="non-scaling-stroke"   >
		<g transform="matrix(1.7 0 0 1.7 -168.1 -174.45)"  >
<path style="stroke: none; stroke-width: 1; stroke-dasharray: none; stroke-linecap: butt; stroke-dashoffset: 0; stroke-linejoin: miter; stroke-miterlimit: 4; fill: rgb(255,255,255); fill-rule: nonzero; opacity: 1;" vector-effect="non-scaling-stroke"  transform=" translate(-136.24, -132.51)" d="M 133.282 137.071 L 146.52100000000002 137.071 C 150.663 137.071 154.02100000000002 133.713 154.02100000000002 129.571 C 154.02100000000002 125.429 150.663 122.071 146.52100000000002 122.071 L 125.95800000000001 122.071 C 121.81600000000002 122.071 118.45800000000001 125.429 118.45800000000001 129.571 L 118.45800000000001 135.446 C 118.45800000000001 139.588 121.81600000000002 142.946 125.95800000000001 142.946 C 129.543 142.946 132.54000000000002 140.432 133.282 137.071 z" stroke-linecap="round" />
</g>
		<g transform="matrix(1.7 0 0 1.7 -139.07 -104.5)"  >
<path style="stroke: none; stroke-width: 1; stroke-dasharray: none; stroke-linecap: butt; stroke-dashoffset: 0; stroke-linejoin: miter; stroke-miterlimit: 4; fill: rgb(255,255,255); fill-rule: nonzero; opacity: 1;" vector-effect="non-scaling-stroke"  transform=" translate(-153.3, -173.6)" d="M 168.297 166.104 C 164.155 166.104 160.797 169.46200000000002 160.797 173.604 C 160.797 177.74 157.433 181.104 153.297 181.104 C 149.161 181.104 145.797 177.74 145.797 173.604 C 145.797 169.46800000000002 149.161 166.104 153.297 166.104 C 157.439 166.104 160.797 162.746 160.797 158.604 C 160.797 154.46200000000002 157.439 151.104 153.297 151.104 C 140.89 151.104 130.797 161.197 130.797 173.604 C 130.797 186.01100000000002 140.89 196.104 153.297 196.104 C 165.704 196.104 175.797 186.01100000000002 175.797 173.604 C 175.797 169.46200000000002 172.439 166.104 168.297 166.104 z" stroke-linecap="round" />
</g>
		<g transform="matrix(1.7 0 0 1.7 0 0)"  >
<path style="stroke: none; stroke-width: 1; stroke-dasharray: none; stroke-linecap: butt; stroke-dashoffset: 0; stroke-linejoin: miter; stroke-miterlimit: 4; fill: rgb(255,255,255); fill-rule: nonzero; opacity: 1;" vector-effect="non-scaling-stroke"  transform=" translate(-235, -235)" d="M 399.229 240.891 L 379.216 240.891 C 367.97 230.731 353.079 224.533 336.766 224.533 L 226.79400000000004 224.533 L 199.66800000000003 6.573999999999984 C 199.20100000000002 2.818999999999984 196.00900000000004 -1.5987211554602254e-14 192.22600000000003 -1.5987211554602254e-14 C 182.23600000000002 -1.5987211554602254e-14 173.25600000000003 3.938999999999984 166.93800000000002 11.091999999999985 C 160.621 18.244999999999983 157.82100000000003 27.642999999999983 159.055 37.55599999999998 L 163.197 70.83999999999997 L 149.844 70.83999999999997 C 149.471 70.83999999999997 149.099 70.85899999999998 148.726 70.86499999999998 L 144.35 35.70399999999998 C 143.838 31.59399999999998 140.096 28.670999999999978 135.981 29.18799999999998 C 131.87099999999998 29.69899999999998 128.953 33.445999999999984 129.465 37.55699999999998 L 133.845 72.74999999999997 C 123.343 75.27299999999997 113.505 80.24799999999998 105.212 87.37699999999997 C 94.58800000000001 96.51099999999997 87.04 108.65699999999997 83.545 122.07199999999997 L 56.486000000000004 122.07199999999997 C 41.56 122.07199999999997 29.416000000000004 134.21599999999998 29.416000000000004 149.14199999999997 L 29.416000000000004 166.99899999999997 C 29.416000000000004 181.92499999999995 41.56 194.06899999999996 56.486000000000004 194.06899999999996 L 81.33200000000001 194.06899999999996 L 81.33200000000001 433.14599999999996 C 81.33200000000001 453.46799999999996 97.86500000000001 470.001 118.18700000000001 470.001 L 129.804 470.001 C 150.126 470.001 166.659 453.46799999999996 166.659 433.14599999999996 L 166.659 371.804 L 314.828 371.804 L 314.828 433.14599999999996 C 314.828 453.46799999999996 331.361 470.001 351.683 470.001 L 363.3 470.001 C 383.622 470.001 400.15500000000003 453.46799999999996 400.15500000000003 433.14599999999996 L 400.15500000000003 287.92199999999997 C 400.15500000000003 276.24199999999996 396.966 265.29799999999994 391.43300000000005 255.89099999999996 L 399.22900000000004 255.89099999999996 C 413.761 255.89099999999996 425.58400000000006 267.71399999999994 425.58400000000006 282.246 L 425.58400000000006 387.998 C 425.58400000000006 392.14 428.94200000000006 395.498 433.08400000000006 395.498 C 437.22600000000006 395.498 440.58400000000006 392.14 440.58400000000006 387.998 L 440.58400000000006 282.246 C 440.584 259.443 422.03200000000004 240.891 399.22900000000004 240.891 z M 173.939 35.70399999999998 C 173.244 30.11999999999998 174.75 24.905999999999977 178.18 21.021999999999977 C 180.213 18.719999999999978 182.794 17.030999999999977 185.73000000000002 16.037999999999975 L 192.55 70.83999999999997 L 178.311 70.83999999999997 L 173.93900000000002 35.70399999999997 z M 56.48599999999999 179.06799999999998 C 49.83099999999999 179.06799999999998 44.41599999999999 173.653 44.41599999999999 166.998 L 44.41599999999999 149.141 C 44.41599999999999 142.486 49.83099999999999 137.071 56.48599999999999 137.071 L 81.332 137.071 L 81.332 179.06799999999998 L 56.48599999999999 179.06799999999998 z M 151.659 433.145 C 151.659 445.19599999999997 141.855 455 129.804 455 L 118.187 455 C 106.136 455 96.332 445.196 96.332 433.145 L 96.332 371.803 L 151.659 371.803 L 151.659 433.145 z M 385.154 433.145 C 385.154 445.19599999999997 375.35 455 363.299 455 L 351.68199999999996 455 C 339.631 455 329.82699999999994 445.196 329.82699999999994 433.145 L 329.82699999999994 371.803 L 362.65399999999994 371.803 C 366.79599999999994 371.803 370.15399999999994 368.445 370.15399999999994 364.303 C 370.15399999999994 360.161 366.79599999999994 356.803 362.65399999999994 356.803 L 96.33199999999994 356.803 L 96.33199999999994 327.713 L 362.65399999999994 327.713 C 366.79599999999994 327.713 370.15399999999994 324.355 370.15399999999994 320.213 C 370.15399999999994 316.071 366.79599999999994 312.713 362.65399999999994 312.713 L 96.33199999999994 312.713 L 96.33199999999994 283.62300000000005 L 299.7969999999999 283.62300000000005 C 303.9389999999999 283.62300000000005 307.2969999999999 280.26500000000004 307.2969999999999 276.12300000000005 C 307.2969999999999 271.98100000000005 303.9389999999999 268.62300000000005 299.7969999999999 268.62300000000005 L 96.33199999999991 268.62300000000005 L 96.33199999999991 239.53300000000004 L 190.0589999999999 239.53300000000004 C 194.2009999999999 239.53300000000004 197.5589999999999 236.17500000000004 197.5589999999999 232.03300000000004 C 197.5589999999999 227.89100000000005 194.2009999999999 224.53300000000004 190.0589999999999 224.53300000000004 L 96.33199999999991 224.53300000000004 L 96.33199999999991 132.91000000000003 C 96.6619999999999 132.247 96.90399999999991 131.52900000000002 97.0269999999999 130.76500000000001 C 101.2229999999999 104.73400000000001 123.4359999999999 85.84000000000002 149.8439999999999 85.84000000000002 L 194.4179999999999 85.84000000000002 L 212.7279999999999 232.96000000000004 C 213.1949999999999 236.71500000000003 216.38599999999988 239.53400000000005 220.1699999999999 239.53400000000005 L 336.7659999999999 239.53400000000005 C 363.4479999999999 239.53400000000005 385.1549999999999 261.24100000000004 385.1549999999999 287.92300000000006 L 385.1549999999999 433.1450000000001 z" stroke-linecap="round" />
</g>
		<g transform="matrix(1.7 0 0 1.7 186.89 70)"  >
<path style="stroke: none; stroke-width: 1; stroke-dasharray: none; stroke-linecap: butt; stroke-dashoffset: 0; stroke-linejoin: miter; stroke-miterlimit: 4; fill: rgb(255,255,255); fill-rule: nonzero; opacity: 1;" vector-effect="non-scaling-stroke"  transform=" translate(-344.8, -276.12)" d="M 359.797 268.623 L 329.797 268.623 C 325.65500000000003 268.623 322.297 271.981 322.297 276.123 C 322.297 280.265 325.65500000000003 283.623 329.797 283.623 L 359.797 283.623 C 363.939 283.623 367.297 280.265 367.297 276.123 C 367.297 271.981 363.939 268.623 359.797 268.623 z" stroke-linecap="round" />
</g>
</g>
</g>
</svg>