<svg width="34" height="34" viewBox="0 0 34 34" fill="none" xmlns="http://www.w3.org/2000/svg"><path d="M17 10.625a3.54 3.54 0 0 0 3.538-3.542h1.24c.636 0 1.252.214 1.75.607l5.682 4.472c.612.482.72 1.369.241 1.984l-1.778 2.285a1.414 1.414 0 0 1-2.004.234l-2.047-1.648v7.65c0 2.347-1.9 4.25-4.245 4.25h-4.61a4.25 4.25 0 0 1-4.246-4.25v-7.65l-2.197 1.688c-.617.474-1.5.361-1.978-.252L4.55 14.146a1.42 1.42 0 0 1 .241-1.985l5.68-4.472a2.83 2.83 0 0 1 1.75-.606h1.242A3.54 3.54 0 0 0 17 10.625" fill="#fff"/></svg>